# xmcd CD database file
#
# Track frame offsets:
#	150
#	16500
#	30517
#	46375
#	56007
#	71457
#	89060
#	102245
#	119367
#	127807
#	141522
#	152535
#	170025
#	186297
#	199857
#	216300
#	228382
#	240755
#	254480
#	267460
#	280830
#	299757
#	315155
#	325442
#
# Disc length: 4523 seconds
#
# Revision: 0
# Processed by: cddbd v1.5PL3 Copyright (c) Steve Scherf et al.
# Submitted via: CDex 1.51
#
DISCID=6411a918
DTITLE=Various Artist - Country Wedding Album
DYEAR=1993
DGENRE=Country
TTITLE0=Debby Boone - You Light Up My Life
TTITLE1=Dolly Parton - I Will Always Love You
TTITLE2=Willie Nelson - Always On My Mind
TTITLE3=Johnny Lee with Roe McCaw- Together(New Wedding Song)
TTITLE4=Don Williams - I Believe In You
TTITLE5=Eddie Rabbitt/Crystal Gayle - You and I
TTITLE6=Cheryl McClain/Wayne Masse - You Are My Musid
TTITLE7=Ray Price - You're the Best Thing
TTITLE8=Shenandoah - Church On Cumberland Road
TTITLE9=Larry Gatlin/Brothers - Love of a Lifetime
TTITLE10=George Jones - She's My rock
TTITLE11=Collin Raye - Love, Me
TTITLE12=Mickey Gilley - Stand By Me
TTITLE13=Johnny Cash/June Carter - If I Were a Carpenter
TTITLE14=Mark fray/Tammy Wynette - Sometimes When We Touch
TTITLE15=Tammy Wynette - Stand By Your Man
TTITLE16=John MacNally - Shadow of Your Smile
TTITLE17=George Jones/Tammy Wynette - Golden Ring
TTITLE18=Johnny Lee - What a Wonderful World
TTITLE19=John MacNally - First Time Ever I Saw Your Face
TTITLE20=Johnny Lee - Lady In Red
TTITLE21=Joey Gregorash - Together (New Wedding Song)
TTITLE22=Marty Robbins - Hawaiian Wedding Song
TTITLE23=John MacNally - Wedding Song
EXTD=
EXTT0=
EXTT1=
EXTT2=
EXTT3=
EXTT4=
EXTT5=
EXTT6=
EXTT7=
EXTT8=
EXTT9=
EXTT10=
EXTT11=
EXTT12=
EXTT13=
EXTT14=
EXTT15=
EXTT16=
EXTT17=
EXTT18=
EXTT19=
EXTT20=
EXTT21=
EXTT22=
EXTT23=
PLAYORDER=
